<svg width="74" height="64" viewBox="0 0 74 64" fill="none" xmlns="http://www.w3.org/2000/svg">
<path d="M46.5175 22.435C46.5175 18.9504 55.1131 18.9504 55.1131 14.4703C54.6073 7.50112 39.3464 4.77498 25.7869 6.50553C12.135 8.24786 -0.000211834 19.6971 0 30.1509C0.000212379 40.6312 9.15909 54.8525 32.8656 52.8006C55.8718 50.8094 63.709 38.3645 62.9503 31.8932C62.2792 26.1684 46.5175 28.9063 46.5175 22.435Z" fill="#FCF0FF"/>
<ellipse cx="36" cy="14" rx="6" ry="4" fill="#F2CCFF"/>
<ellipse cx="20" cy="20" rx="6" ry="4" fill="#DF99FF"/>
<ellipse cx="12" cy="32" rx="6" ry="4" fill="#C766FF"/>
<ellipse cx="26" cy="42" rx="6" ry="4" fill="#AF3FFF"/>
<path d="M63.7321 11.7224L65.4641 12.7224L62.45 20.0333C60.6178 24.4772 58.3889 28.747 55.7902 32.7909L37.5047 61.2446C37.2021 61.7155 36.5829 61.8658 36.0981 61.5859C35.6133 61.306 35.4338 60.6946 35.6903 60.197L51.1892 30.1345C53.3919 25.8621 55.9752 21.7968 58.9077 17.9881L63.7321 11.7224Z" fill="#F2CCFF"/>
<path d="M70.5979 1.82993C60.4945 8.92942 63.7318 11.7222 63.7318 11.7222L65.4635 12.722C65.4635 12.722 69.4276 13.856 70.5979 1.82993Z" fill="url(#paint0_linear)"/>
<defs>
<linearGradient id="paint0_linear" x1="73.8599" y1="-4.25414" x2="59.2999" y2="-1.48082" gradientUnits="userSpaceOnUse">
<stop stop-color="#33AAFF"/>
<stop offset="1" stop-color="#CC30CF"/>
</linearGradient>
</defs>
</svg>
