<?xml version="1.0" encoding="UTF-8"?> <svg xmlns="http://www.w3.org/2000/svg" width="160" height="90" viewBox="0 0 160 90" fill="none"><path d="M0 5C0 2.23858 2.23858 0 5 0H155C157.761 0 160 2.23858 160 5V85C160 87.7614 157.761 90 155 90H5C2.23858 90 0 87.7614 0 85V5Z" fill="#FCF0FF"></path><path fill-rule="evenodd" clip-rule="evenodd" d="M30 72H130V19C130 16.2386 127.761 14 125 14H35C32.2386 14 30 16.2386 30 19V72Z" fill="url(#paint0_linear)"></path><rect width="92" height="50" transform="matrix(-1 0 0 1 126 18)" fill="white"></rect><path d="M51 29C51 27.8954 51.8954 27 53 27H107C108.105 27 109 27.8954 109 29V34C109 35.1046 108.105 36 107 36H53C51.8954 36 51 35.1046 51 34V29Z" fill="#FCF0FF"></path><path d="M51 41C51 39.8954 51.8954 39 53 39H66C67.1046 39 68 39.8954 68 41V68H51V41Z" fill="#FCF0FF"></path><path d="M71 41C71 39.8954 71.8954 39 73 39H106C107.105 39 108 39.8954 108 41V68H71V41Z" fill="#FCF0FF"></path><path fill-rule="evenodd" clip-rule="evenodd" d="M136 76C138.209 76 140 74.2091 140 72H20C20 72 21.7909 76 24 76H136Z" fill="#DF99FF"></path><path fill-rule="evenodd" clip-rule="evenodd" d="M109 74H105C102.911 74 102 72.9422 102 71V65C102 63.8954 102.895 63 104 63H109V65H105C104.448 65 104 65.4477 104 66V71C104 71.5 104.5 72 105 72H109V74Z" fill="#F2CCFF"></path><path fill-rule="evenodd" clip-rule="evenodd" d="M126 58V77.4554C126 78.3084 125.341 79 124.529 79H109.471C108.659 79 108 78.3084 108 77.4554V58H126Z" fill="#F2CCFF"></path><path fill-rule="evenodd" clip-rule="evenodd" d="M122.575 49.7355C121.854 51.3193 120.891 52.7532 120.473 53.7911C119.994 54.8291 120.061 55.471 120 55.471C120.061 55.471 118.707 54.8291 117.898 53.7911C117.029 52.7532 116.705 51.3193 117.426 49.7355C118.147 48.1517 119.11 46.7179 119.528 45.6799C120.006 44.6419 119.94 44 120 44C119.94 44 121.294 44.6419 122.102 45.6799C122.972 46.7179 123.296 48.1517 122.575 49.7355Z" fill="#FCF0FF"></path><path fill-rule="evenodd" clip-rule="evenodd" d="M116.36 51.5155C115.82 52.8263 115.098 54.013 114.784 54.8719C114.425 55.7309 114.475 56.2622 114.429 56.2622C114.475 56.2622 113.459 55.7309 112.853 54.8719C112.201 54.013 111.958 52.8263 112.499 51.5155C113.039 50.2048 113.761 49.0181 114.075 48.1592C114.434 47.3003 114.384 46.769 114.429 46.769C114.384 46.769 115.399 47.3003 116.006 48.1592C116.658 49.0182 116.901 50.2048 116.36 51.5155Z" fill="#FCF0FF"></path><path d="M125.999 64.3578V71.0809C124.469 72.3932 122.739 73.2586 122.739 73.2586C122.739 73.2586 117.172 70.9697 117.172 67.3169C117.172 65.632 118.538 64.2665 120.222 64.2665C121.267 64.2665 122.19 64.7931 122.739 65.5954C123.288 64.7931 124.211 64.2665 125.257 64.2665C125.513 64.2665 125.762 64.2983 125.999 64.3578Z" fill="#DF99FF"></path><defs><linearGradient id="paint0_linear" x1="83.3835" y1="-19.35" x2="112.435" y2="81.9927" gradientUnits="userSpaceOnUse"><stop stop-color="#33AAFF"></stop><stop offset="1" stop-color="#CC30CF"></stop></linearGradient></defs></svg> 