<?xml version="1.0" encoding="UTF-8"?> <svg xmlns="http://www.w3.org/2000/svg" width="160" height="90" viewBox="0 0 160 90" fill="none"><g clip-path="url(#clip0)"><path d="M0 5C0 2.23858 2.23858 0 5 0H155C157.761 0 160 2.23858 160 5V85C160 87.7614 157.761 90 155 90H5C2.23858 90 0 87.7614 0 85V5Z" fill="#FCF0FF"></path><path d="M42.4641 45.5342C41.7441 45.1513 41.7606 44.1138 42.4925 43.754L65.0312 32.6713L56.0105 52.7398L42.4641 45.5342Z" fill="url(#paint0_linear)"></path><path d="M77.7556 80.8257C78.1386 81.5457 79.176 81.5292 79.5359 80.7974L90.6185 58.2587L70.5501 67.2793L77.7556 80.8257Z" fill="url(#paint1_linear)"></path><path d="M52.3636 55.6327L-10.712 92.6901L34.5318 130.326L67.1321 70.8773L52.3636 55.6327Z" fill="#F2CCFF"></path><path d="M54.4594 58.0242L-4.3829 99.3149L27.376 123.466L64.3446 68.3855L54.4594 58.0242Z" fill="#FCF0FF"></path><path d="M56.2882 59.678L0.704019 104.227L22.0843 117.999L62.415 66.2809L56.2882 59.678Z" fill="#F2CCFF"></path><path fill-rule="evenodd" clip-rule="evenodd" d="M85.8597 63.7361C89.384 62.1001 92.3554 59.4729 94.4109 56.1755L109.068 32.6636L105.301 17.7962L90.4336 14.0296L66.9216 28.6862C63.6243 30.7417 60.9971 33.7131 59.361 37.2374L52.5469 51.9163L52.6869 52.469L70.6282 70.4102L71.1809 70.5503L85.8597 63.7361Z" fill="white"></path><mask id="mask0" maskUnits="userSpaceOnUse" x="47" y="3" width="73" height="73"><path fill-rule="evenodd" clip-rule="evenodd" d="M85.8597 63.7361C89.384 62.1001 92.3554 59.4729 94.4109 56.1755L109.068 32.6636L105.301 17.7962L90.4336 14.0296L66.9216 28.6862C63.6243 30.7417 60.9971 33.7131 59.361 37.2374L52.5469 51.9163L52.6869 52.469L70.6282 70.4102L71.1809 70.5503L85.8597 63.7361Z" fill="white"></path></mask><g mask="url(#mask0)"><rect x="44.4863" y="32" width="67" height="12" transform="rotate(45 44.4863 32)" fill="#FCF0FF"></rect></g><path d="M52.542 52.324L70.8469 70.6289L65.5225 73.9533L49.2175 57.6484L52.542 52.324Z" fill="#C766FF"></path><path d="M112.583 9.37381C113.289 9.22919 113.912 9.85616 113.762 10.5611L109 33L89.9997 14L112.583 9.37381Z" fill="url(#paint2_linear)"></path><circle cx="87.041" cy="36.0552" r="10.5969" transform="rotate(45 87.041 36.0552)" fill="#FCF0FF"></circle><circle cx="87.042" cy="36.0551" r="6.35449" transform="rotate(45 87.042 36.0551)" fill="url(#paint3_linear)"></circle></g><defs><linearGradient id="paint0_linear" x1="86.9597" y1="33.7631" x2="46.8467" y2="58.5541" gradientUnits="userSpaceOnUse"><stop stop-color="#33AAFF"></stop><stop offset="1" stop-color="#CC30CF"></stop></linearGradient><linearGradient id="paint1_linear" x1="86.9597" y1="33.7631" x2="46.8467" y2="58.5541" gradientUnits="userSpaceOnUse"><stop stop-color="#33AAFF"></stop><stop offset="1" stop-color="#CC30CF"></stop></linearGradient><linearGradient id="paint2_linear" x1="121.704" y1="0.00998247" x2="88.6333" y2="14.9599" gradientUnits="userSpaceOnUse"><stop stop-color="#33AAFF"></stop><stop offset="1" stop-color="#CC30CF"></stop></linearGradient><linearGradient id="paint3_linear" x1="86.612" y1="22.393" x2="77.0663" y2="41.7061" gradientUnits="userSpaceOnUse"><stop stop-color="#33AAFF"></stop><stop offset="1" stop-color="#CC30CF"></stop></linearGradient><clipPath id="clip0"><path d="M0 5C0 2.23858 2.23858 0 5 0H155C157.761 0 160 2.23858 160 5V85C160 87.7614 157.761 90 155 90H5C2.23858 90 0 87.7614 0 85V5Z" fill="white"></path></clipPath></defs></svg> 