<?xml version="1.0" encoding="UTF-8"?> <svg xmlns="http://www.w3.org/2000/svg" width="160" height="90" viewBox="0 0 160 90" fill="none"><g clip-path="url(#clip0)"><path d="M0 5C0 2.23858 2.23858 0 5 0H155C157.761 0 160 2.23858 160 5V85C160 87.7614 157.761 90 155 90H5C2.23858 90 0 87.7614 0 85V5Z" fill="#FCF0FF"></path><path d="M42.1412 21.0474C42.1208 14.9461 47.0504 10 53.1518 10L106.463 10C112.564 10 117.527 14.9461 117.547 21.0474L117.626 44.4963H118.291L118.352 62.6288H117.686L117.981 150.868C118.001 156.97 113.072 161.916 106.97 161.916H53.6591C47.5577 161.916 42.5951 156.97 42.5747 150.868L42.2911 65.9457L41.6257 65.9457L41.5881 54.6682H42.2534L42.2461 52.457L41.5807 52.457L41.5431 41.1792L42.2084 41.1792L42.1922 36.3145L41.5268 36.3145L41.5068 30.344L42.1722 30.344L42.1412 21.0474Z" fill="url(#paint0_linear)"></path><path d="M61.4145 14.4227L53.1835 14.4227C49.5227 14.4227 46.565 17.3904 46.5772 21.0511L47.0107 150.865C47.0229 154.526 50.0005 157.493 53.6613 157.493L106.939 157.493C110.6 157.493 113.558 154.526 113.546 150.865L113.112 21.0511C113.1 17.3903 110.122 14.4227 106.461 14.4227L98.2305 14.4227L98.2416 17.7413C98.2452 18.8396 97.3579 19.7299 96.2596 19.7299L63.4208 19.7299C62.3225 19.7299 61.4293 18.8396 61.4256 17.7414L61.4145 14.4227Z" fill="white"></path><path d="M75.1719 16.1918C75.1707 15.8255 75.4667 15.5285 75.8331 15.5285L83.3776 15.5285C83.744 15.5285 84.042 15.8255 84.0432 16.1919C84.0444 16.5582 83.7484 16.8552 83.382 16.8552L75.8375 16.8552C75.4711 16.8552 75.1731 16.5582 75.1719 16.1918Z" fill="white"></path><path d="M88.0382 17.0764C88.6507 17.0764 89.1455 16.5814 89.1434 15.9708C89.1414 15.3602 88.6432 14.8651 88.0308 14.8651C87.4184 14.8651 86.9235 15.3601 86.9256 15.9708C86.9276 16.5814 87.4258 17.0764 88.0382 17.0764Z" fill="white"></path><path d="M50 55C50 53.8954 50.8954 53 52 53H107C108.105 53 109 53.8954 109 55V86C109 87.1046 108.105 88 107 88H52C50.8954 88 50 87.1046 50 86V55Z" fill="#FCF0FF"></path><path d="M50 39C50 37.8954 50.8954 37 52 37H107C108.105 37 109 37.8954 109 39V48C109 49.1046 108.105 50 107 50H52C50.8954 50 50 49.1046 50 48V39Z" fill="#FCF0FF"></path><circle opacity="0.5" cx="105.5" cy="29.5" r="3.5" fill="#F2CCFF"></circle></g><defs><linearGradient id="paint0_linear" x1="77.3292" y1="-77.3516" x2="-66.2596" y2="69.6013" gradientUnits="userSpaceOnUse"><stop stop-color="#33AAFF"></stop><stop offset="1" stop-color="#CC30CF"></stop></linearGradient><clipPath id="clip0"><path d="M0 5C0 2.23858 2.23858 0 5 0H155C157.761 0 160 2.23858 160 5V85C160 87.7614 157.761 90 155 90H5C2.23858 90 0 87.7614 0 85V5Z" fill="white"></path></clipPath></defs></svg> 